<mxfile host="app.diagrams.net" modified="2023-06-06T14:09:51.915Z" agent="Mozilla/5.0 (Windows NT 10.0; Win64; x64) AppleWebKit/537.36 (KHTML, like Gecko) Chrome/114.0.0.0 Safari/537.36 Edg/114.0.1823.37" etag="X3dFY929Ix7Ea6M2XU0f" version="21.3.3" type="device">
  <diagram name="Page-1" id="CHn9WOKtg3yaj_x3Etmd">
    <mxGraphModel dx="1434" dy="788" grid="1" gridSize="10" guides="1" tooltips="1" connect="1" arrows="1" fold="1" page="1" pageScale="1" pageWidth="827" pageHeight="1169" math="0" shadow="0">
      <root>
        <mxCell id="0" />
        <mxCell id="1" parent="0" />
        <mxCell id="nuwyxVhRlpsigbD1GOly-16" style="edgeStyle=orthogonalEdgeStyle;rounded=0;orthogonalLoop=1;jettySize=auto;html=1;exitX=0.5;exitY=1;exitDx=0;exitDy=0;exitPerimeter=0;entryX=0.5;entryY=0;entryDx=0;entryDy=0;" parent="1" source="nuwyxVhRlpsigbD1GOly-2" target="nuwyxVhRlpsigbD1GOly-4" edge="1">
          <mxGeometry relative="1" as="geometry" />
        </mxCell>
        <mxCell id="nuwyxVhRlpsigbD1GOly-2" value="Input:&lt;br&gt;Arguments: &lt;b&gt;ImmutableArray&amp;lt;BoundExpression&amp;gt;&lt;/b&gt;&lt;br&gt;ParameterTypes: &lt;b&gt;ImmutableArray&amp;lt;TypeWithAnnotations&amp;gt;&lt;/b&gt;&lt;br&gt;TypeParameters: &lt;b&gt;ImmutableArray&amp;lt;TypeParameterSymbol&amp;gt;&lt;/b&gt;" style="shape=note;whiteSpace=wrap;html=1;backgroundOutline=1;darkOpacity=0.05;fillColor=#dae8fc;strokeColor=#6c8ebf;" parent="1" vertex="1">
          <mxGeometry x="230" y="10" width="340" height="70" as="geometry" />
        </mxCell>
        <mxCell id="nuwyxVhRlpsigbD1GOly-22" style="edgeStyle=orthogonalEdgeStyle;rounded=0;orthogonalLoop=1;jettySize=auto;html=1;exitX=0.5;exitY=1;exitDx=0;exitDy=0;entryX=0.5;entryY=0;entryDx=0;entryDy=0;entryPerimeter=0;" parent="1" source="nuwyxVhRlpsigbD1GOly-4" target="nuwyxVhRlpsigbD1GOly-21" edge="1">
          <mxGeometry relative="1" as="geometry" />
        </mxCell>
        <mxCell id="nuwyxVhRlpsigbD1GOly-4" value="" style="swimlane;startSize=0;" parent="1" vertex="1">
          <mxGeometry x="40" y="120" width="200" height="240" as="geometry" />
        </mxCell>
        <mxCell id="nuwyxVhRlpsigbD1GOly-7" value="The first phase" style="text;html=1;align=center;verticalAlign=middle;resizable=0;points=[];autosize=1;strokeColor=none;fillColor=none;" parent="nuwyxVhRlpsigbD1GOly-4" vertex="1">
          <mxGeometry x="10" width="100" height="30" as="geometry" />
        </mxCell>
        <mxCell id="nuwyxVhRlpsigbD1GOly-17" value="&lt;b&gt;Explicitly parameter type inferences&lt;/b&gt;&lt;br&gt;(Typed anonymous functions)" style="rounded=0;whiteSpace=wrap;html=1;fillColor=#d5e8d4;strokeColor=#82b366;" parent="nuwyxVhRlpsigbD1GOly-4" vertex="1">
          <mxGeometry x="5" y="30" width="190" height="50" as="geometry" />
        </mxCell>
        <mxCell id="nuwyxVhRlpsigbD1GOly-20" value="&lt;b&gt;Exact inferences&lt;/b&gt;&lt;br&gt;(Only collect bounds)" style="rounded=0;whiteSpace=wrap;html=1;fillColor=#d5e8d4;strokeColor=#82b366;" parent="nuwyxVhRlpsigbD1GOly-4" vertex="1">
          <mxGeometry x="5" y="90" width="185" height="40" as="geometry" />
        </mxCell>
        <mxCell id="nuwyxVhRlpsigbD1GOly-18" value="&lt;b&gt;Lower-bound inferences&lt;/b&gt;&lt;br&gt;(Only collect bounds)" style="rounded=0;whiteSpace=wrap;html=1;fillColor=#d5e8d4;strokeColor=#82b366;" parent="nuwyxVhRlpsigbD1GOly-4" vertex="1">
          <mxGeometry x="5" y="140" width="185" height="40" as="geometry" />
        </mxCell>
        <mxCell id="nuwyxVhRlpsigbD1GOly-19" value="&lt;b&gt;Upper-bound inferences&lt;/b&gt;&lt;br&gt;(Only collect bounds)" style="rounded=0;whiteSpace=wrap;html=1;fillColor=#d5e8d4;strokeColor=#82b366;" parent="nuwyxVhRlpsigbD1GOly-4" vertex="1">
          <mxGeometry x="5" y="190" width="185" height="40" as="geometry" />
        </mxCell>
        <mxCell id="nuwyxVhRlpsigbD1GOly-11" style="edgeStyle=orthogonalEdgeStyle;rounded=0;orthogonalLoop=1;jettySize=auto;html=1;exitX=1;exitY=0.5;exitDx=0;exitDy=0;entryX=0.5;entryY=0;entryDx=0;entryDy=0;" parent="1" source="nuwyxVhRlpsigbD1GOly-5" target="nuwyxVhRlpsigbD1GOly-10" edge="1">
          <mxGeometry relative="1" as="geometry">
            <Array as="points">
              <mxPoint x="640" y="340" />
              <mxPoint x="725" y="340" />
            </Array>
          </mxGeometry>
        </mxCell>
        <mxCell id="nuwyxVhRlpsigbD1GOly-5" value="" style="swimlane;startSize=0;" parent="1" vertex="1">
          <mxGeometry x="440" y="120" width="200" height="270" as="geometry" />
        </mxCell>
        <mxCell id="nuwyxVhRlpsigbD1GOly-8" value="The second phase" style="text;html=1;align=center;verticalAlign=middle;resizable=0;points=[];autosize=1;strokeColor=none;fillColor=none;" parent="nuwyxVhRlpsigbD1GOly-5" vertex="1">
          <mxGeometry x="10" width="120" height="30" as="geometry" />
        </mxCell>
        <mxCell id="nuwyxVhRlpsigbD1GOly-24" value="&lt;b&gt;Output type inferences&lt;/b&gt;&lt;br&gt;(anonymous functions without explicitly typed parameters)" style="rounded=0;whiteSpace=wrap;html=1;fillColor=#d5e8d4;strokeColor=#82b366;" parent="nuwyxVhRlpsigbD1GOly-5" vertex="1">
          <mxGeometry x="18.5" y="90" width="166" height="60" as="geometry" />
        </mxCell>
        <mxCell id="nuwyxVhRlpsigbD1GOly-25" value="&lt;b&gt;Fix&lt;/b&gt; nondependent type parameters" style="rounded=0;whiteSpace=wrap;html=1;fillColor=#d5e8d4;strokeColor=#82b366;" parent="nuwyxVhRlpsigbD1GOly-5" vertex="1">
          <mxGeometry x="18.5" y="160" width="163" height="40" as="geometry" />
        </mxCell>
        <mxCell id="nuwyxVhRlpsigbD1GOly-26" value="&lt;b&gt;Fix&lt;/b&gt; dependent type parameters which has at least one bound" style="rounded=0;whiteSpace=wrap;html=1;fillColor=#d5e8d4;strokeColor=#82b366;" parent="nuwyxVhRlpsigbD1GOly-5" vertex="1">
          <mxGeometry x="20" y="210" width="163" height="45" as="geometry" />
        </mxCell>
        <mxCell id="nuwyxVhRlpsigbD1GOly-40" value="Initialize input/output dependencies" style="rounded=0;whiteSpace=wrap;html=1;fillColor=#d5e8d4;strokeColor=#82b366;" parent="nuwyxVhRlpsigbD1GOly-5" vertex="1">
          <mxGeometry x="40" y="40" width="120" height="40" as="geometry" />
        </mxCell>
        <mxCell id="nuwyxVhRlpsigbD1GOly-12" style="edgeStyle=orthogonalEdgeStyle;rounded=0;orthogonalLoop=1;jettySize=auto;html=1;exitX=0;exitY=0.5;exitDx=0;exitDy=0;entryX=0.5;entryY=1;entryDx=0;entryDy=0;" parent="1" source="nuwyxVhRlpsigbD1GOly-10" target="nuwyxVhRlpsigbD1GOly-5" edge="1">
          <mxGeometry relative="1" as="geometry" />
        </mxCell>
        <mxCell id="nuwyxVhRlpsigbD1GOly-13" style="edgeStyle=orthogonalEdgeStyle;rounded=0;orthogonalLoop=1;jettySize=auto;html=1;exitX=0.5;exitY=1;exitDx=0;exitDy=0;entryX=0.5;entryY=0;entryDx=0;entryDy=0;entryPerimeter=0;" parent="1" source="nuwyxVhRlpsigbD1GOly-10" target="nuwyxVhRlpsigbD1GOly-14" edge="1">
          <mxGeometry relative="1" as="geometry">
            <mxPoint x="745" y="580" as="targetPoint" />
          </mxGeometry>
        </mxCell>
        <mxCell id="nuwyxVhRlpsigbD1GOly-10" value="All type parameters are inferred or no progress was made" style="rhombus;whiteSpace=wrap;html=1;fillColor=#d5e8d4;strokeColor=#82b366;" parent="1" vertex="1">
          <mxGeometry x="670" y="370" width="110" height="140" as="geometry" />
        </mxCell>
        <mxCell id="nuwyxVhRlpsigbD1GOly-14" value="Output:&lt;br&gt;&lt;b&gt;MethodTypeInferenceResult&lt;/b&gt;&lt;br&gt;(&lt;i&gt;MethodTypeInference.cs&lt;/i&gt;)" style="shape=note;whiteSpace=wrap;html=1;backgroundOutline=1;darkOpacity=0.05;fillColor=#dae8fc;strokeColor=#6c8ebf;" parent="1" vertex="1">
          <mxGeometry x="640" y="530" width="170" height="80" as="geometry" />
        </mxCell>
        <mxCell id="nuwyxVhRlpsigbD1GOly-23" style="edgeStyle=orthogonalEdgeStyle;rounded=0;orthogonalLoop=1;jettySize=auto;html=1;exitX=0;exitY=0;exitDx=240;exitDy=55;exitPerimeter=0;" parent="1" source="nuwyxVhRlpsigbD1GOly-21" edge="1">
          <mxGeometry relative="1" as="geometry">
            <mxPoint x="440" y="160" as="targetPoint" />
            <Array as="points">
              <mxPoint x="355" y="445" />
              <mxPoint x="355" y="160" />
              <mxPoint x="440" y="160" />
            </Array>
          </mxGeometry>
        </mxCell>
        <mxCell id="nuwyxVhRlpsigbD1GOly-21" value="Output:&lt;br&gt;Lower, Upper, and Exact bounds for type parameters deduced from type arguments" style="shape=note;whiteSpace=wrap;html=1;backgroundOutline=1;darkOpacity=0.05;fillColor=#dae8fc;strokeColor=#6c8ebf;" parent="1" vertex="1">
          <mxGeometry x="30" y="390" width="240" height="80" as="geometry" />
        </mxCell>
        <mxCell id="nuwyxVhRlpsigbD1GOly-28" value="" style="swimlane;startSize=0;" parent="1" vertex="1">
          <mxGeometry x="30" y="630" width="670" height="150" as="geometry" />
        </mxCell>
        <mxCell id="nuwyxVhRlpsigbD1GOly-29" value="Fixing" style="text;html=1;align=center;verticalAlign=middle;resizable=0;points=[];autosize=1;strokeColor=none;fillColor=none;" parent="nuwyxVhRlpsigbD1GOly-28" vertex="1">
          <mxGeometry x="10" width="60" height="30" as="geometry" />
        </mxCell>
        <mxCell id="nuwyxVhRlpsigbD1GOly-36" style="edgeStyle=orthogonalEdgeStyle;rounded=0;orthogonalLoop=1;jettySize=auto;html=1;exitX=1;exitY=0.5;exitDx=0;exitDy=0;entryX=0;entryY=0.5;entryDx=0;entryDy=0;" parent="nuwyxVhRlpsigbD1GOly-28" source="nuwyxVhRlpsigbD1GOly-30" target="nuwyxVhRlpsigbD1GOly-31" edge="1">
          <mxGeometry relative="1" as="geometry" />
        </mxCell>
        <mxCell id="nuwyxVhRlpsigbD1GOly-30" value="Collect all candidates from bounds of the type parameter" style="rounded=0;whiteSpace=wrap;html=1;fillColor=#d5e8d4;strokeColor=#82b366;" parent="nuwyxVhRlpsigbD1GOly-28" vertex="1">
          <mxGeometry x="10" y="30" width="120" height="60" as="geometry" />
        </mxCell>
        <mxCell id="nuwyxVhRlpsigbD1GOly-37" style="edgeStyle=orthogonalEdgeStyle;rounded=0;orthogonalLoop=1;jettySize=auto;html=1;exitX=1;exitY=0.5;exitDx=0;exitDy=0;entryX=0;entryY=0.5;entryDx=0;entryDy=0;" parent="nuwyxVhRlpsigbD1GOly-28" source="nuwyxVhRlpsigbD1GOly-31" target="nuwyxVhRlpsigbD1GOly-32" edge="1">
          <mxGeometry relative="1" as="geometry">
            <mxPoint x="340" y="-119" as="targetPoint" />
          </mxGeometry>
        </mxCell>
        <mxCell id="nuwyxVhRlpsigbD1GOly-31" value="Go through all lower bounds and exclude that candidates, which can&#39;t be converted to that bounds" style="rounded=0;whiteSpace=wrap;html=1;fillColor=#d5e8d4;strokeColor=#82b366;" parent="nuwyxVhRlpsigbD1GOly-28" vertex="1">
          <mxGeometry x="150" y="25" width="170" height="70" as="geometry" />
        </mxCell>
        <mxCell id="nuwyxVhRlpsigbD1GOly-38" style="edgeStyle=orthogonalEdgeStyle;rounded=0;orthogonalLoop=1;jettySize=auto;html=1;exitX=1;exitY=0.5;exitDx=0;exitDy=0;entryX=0;entryY=0.5;entryDx=0;entryDy=0;" parent="nuwyxVhRlpsigbD1GOly-28" source="nuwyxVhRlpsigbD1GOly-32" target="nuwyxVhRlpsigbD1GOly-33" edge="1">
          <mxGeometry relative="1" as="geometry" />
        </mxCell>
        <mxCell id="nuwyxVhRlpsigbD1GOly-32" value="Go through all upper bounds and exclude that candidates, which can&#39;t convert to that bounds" style="rounded=0;whiteSpace=wrap;html=1;fillColor=#d5e8d4;strokeColor=#82b366;" parent="nuwyxVhRlpsigbD1GOly-28" vertex="1">
          <mxGeometry x="340" y="22.5" width="140" height="75" as="geometry" />
        </mxCell>
        <mxCell id="nuwyxVhRlpsigbD1GOly-39" style="edgeStyle=orthogonalEdgeStyle;rounded=0;orthogonalLoop=1;jettySize=auto;html=1;exitX=1;exitY=0.5;exitDx=0;exitDy=0;entryX=1;entryY=0.5;entryDx=0;entryDy=0;" parent="nuwyxVhRlpsigbD1GOly-28" source="nuwyxVhRlpsigbD1GOly-33" target="nuwyxVhRlpsigbD1GOly-34" edge="1">
          <mxGeometry relative="1" as="geometry" />
        </mxCell>
        <mxCell id="nuwyxVhRlpsigbD1GOly-33" value="Go through all exact bounds and exclude that candidates, which are not identical with that bounds" style="rounded=0;whiteSpace=wrap;html=1;fillColor=#d5e8d4;strokeColor=#82b366;" parent="nuwyxVhRlpsigbD1GOly-28" vertex="1">
          <mxGeometry x="500" y="17.5" width="140" height="85" as="geometry" />
        </mxCell>
        <mxCell id="nuwyxVhRlpsigbD1GOly-34" value="Fix the type parameter by remained candidate or fail" style="rounded=0;whiteSpace=wrap;html=1;fillColor=#d5e8d4;strokeColor=#82b366;" parent="nuwyxVhRlpsigbD1GOly-28" vertex="1">
          <mxGeometry x="150" y="111" width="300" height="29" as="geometry" />
        </mxCell>
      </root>
    </mxGraphModel>
  </diagram>
</mxfile>
